<svg xmlns="http://www.w3.org/2000/svg" xmlns:xlink="http://www.w3.org/1999/xlink" width="512" zoomAndPan="magnify" viewBox="0 0 384 383.999986" height="512" preserveAspectRatio="xMidYMid meet" version="1.0"><defs><g/></defs><rect x="-38.4" width="460.8" fill="#ffffff" y="-38.399999" height="460.799983" fill-opacity="1"/><rect x="-38.4" width="460.8" fill="#333f48" y="-38.399999" height="460.799983" fill-opacity="1"/><g fill="#000000" fill-opacity="0.4"><g transform="translate(49.677811, 305.154792)"><g><path d="M 261.828125 -185.875 L 216.3125 -185.875 L 189.640625 -69.5 L 159.46875 -185.875 L 113.140625 -185.875 L 82.96875 -69.5 L 54.953125 -187.75 L 5.125 -179.9375 L 54.140625 0 L 100.484375 0 L 132.53125 -119.875 L 164.59375 0 L 211.1875 0 Z M 261.828125 -185.875 "/></g></g></g><g fill="#000000" fill-opacity="0.4"><g transform="translate(288.611386, 305.154792)"><g><path d="M 56.84375 0 L 56.84375 -46.328125 L 13.203125 -46.328125 L 13.203125 0 Z M 56.84375 0 "/></g></g></g><g fill="#fcaf17" fill-opacity="1"><g transform="translate(37.772996, 293.249977)"><g><path d="M 261.828125 -185.875 L 216.3125 -185.875 L 189.640625 -69.5 L 159.46875 -185.875 L 113.140625 -185.875 L 82.96875 -69.5 L 54.953125 -187.75 L 5.125 -179.9375 L 54.140625 0 L 100.484375 0 L 132.53125 -119.875 L 164.59375 0 L 211.1875 0 Z M 261.828125 -185.875 "/></g></g></g><g fill="#49c5b1" fill-opacity="1"><g transform="translate(276.70657, 293.249977)"><g><path d="M 56.84375 0 L 56.84375 -46.328125 L 13.203125 -46.328125 L 13.203125 0 Z M 56.84375 0 "/></g></g></g></svg>